<svg width="44" height="44" viewBox="0 0 44 44" fill="none" xmlns="http://www.w3.org/2000/svg">
<g id="Back Button">
<circle id="Ellipse 2" cx="22" cy="22" r="21" stroke="#FFD810" stroke-width="2"/>
<path id="Arrow 1" d="M33 24C33.5523 24 34 23.5523 34 23C34 22.4477 33.5523 22 33 22L33 24ZM10.2929 22.2929C9.90237 22.6834 9.90237 23.3166 10.2929 23.7071L16.6569 30.0711C17.0474 30.4616 17.6805 30.4616 18.0711 30.0711C18.4616 29.6805 18.4616 29.0474 18.0711 28.6569L12.4142 23L18.0711 17.3431C18.4616 16.9526 18.4616 16.3195 18.0711 15.9289C17.6805 15.5384 17.0474 15.5384 16.6569 15.9289L10.2929 22.2929ZM33 22L11 22L11 24L33 24L33 22Z" fill="#FFD810"/>
</g>
</svg>
