<svg width="42" height="42" viewBox="0 0 42 42" fill="none" xmlns="http://www.w3.org/2000/svg">
<g id="Group 67">
<circle id="Ellipse 2" cx="21" cy="21" r="20" stroke="#FFD810" stroke-width="2"/>
<path id="Vector" d="M19.8571 22.1429H14.1429C13.819 22.1429 13.5476 22.0333 13.3286 21.8143C13.1095 21.5952 13 21.3238 13 21C13 20.6762 13.1095 20.4048 13.3286 20.1857C13.5476 19.9667 13.819 19.8571 14.1429 19.8571H19.8571V14.1429C19.8571 13.819 19.9667 13.5476 20.1857 13.3286C20.4048 13.1095 20.6762 13 21 13C21.3238 13 21.5952 13.1095 21.8143 13.3286C22.0333 13.5476 22.1429 13.819 22.1429 14.1429V19.8571H27.8571C28.181 19.8571 28.4524 19.9667 28.6714 20.1857C28.8905 20.4048 29 20.6762 29 21C29 21.3238 28.8905 21.5952 28.6714 21.8143C28.4524 22.0333 28.181 22.1429 27.8571 22.1429H22.1429V27.8571C22.1429 28.181 22.0333 28.4524 21.8143 28.6714C21.5952 28.8905 21.3238 29 21 29C20.6762 29 20.4048 28.8905 20.1857 28.6714C19.9667 28.4524 19.8571 28.181 19.8571 27.8571V22.1429Z" fill="#FFD810"/>
</g>
</svg>
